<?xml version="1.0" encoding="UTF-8"?> <svg xmlns="http://www.w3.org/2000/svg" width="3063" height="1424" viewBox="0 0 3063 1424" fill="none"><g clip-path="url(#clip0_2664_177)"><path d="M1100.44 426.52L1064.68 568.22L1092.7 635.42L974.2 776.04L862.61 844.03L826.32 955.84L769.55 1199.63H2015.39H2926.36L3062.49 440.32L1100.44 426.52Z" fill="#0C3447"></path><path d="M1354.36 726.34L1376.05 504.945H1432.91L1444.44 589.408C1446.15 602.247 1447.57 614.581 1448.68 626.409C1449.89 638.136 1450.85 649.559 1451.56 660.679C1453.38 641.168 1454.9 625.802 1456.11 614.581C1457.43 603.258 1458.49 594.867 1459.3 589.408L1473.55 504.945H1529.81L1548.46 726.34H1503.73L1499.03 623.528C1498.92 621.101 1498.77 617.462 1498.57 612.609C1497.26 585.718 1496.6 563.68 1496.6 546.494L1467.79 726.34H1435.79L1408.65 545.281C1408.65 560.344 1407.74 581.877 1405.92 609.88C1405.51 616.249 1405.21 621 1405.01 624.134L1398.19 726.34H1354.36ZM1612.76 653.097H1642.17C1639.14 637.63 1636.41 621.455 1633.99 604.572C1631.56 587.589 1629.44 569.695 1627.62 550.892C1625.39 567.471 1623.02 584.303 1620.49 601.388C1618.06 618.372 1615.49 635.608 1612.76 653.097ZM1553.77 726.34L1605.33 504.945H1651.58L1700.71 726.34H1656.58L1649.15 687.52H1604.72L1597.9 726.34H1553.77ZM1759.54 600.933C1760.05 600.933 1760.81 600.984 1761.82 601.085C1762.93 601.186 1763.74 601.236 1764.25 601.236C1773.65 601.236 1780.77 598.557 1785.63 593.199C1790.58 587.74 1793.06 579.956 1793.06 569.847C1793.06 559.333 1790.73 551.599 1786.08 546.646C1781.43 541.591 1774.15 539.064 1764.25 539.064C1763.74 539.064 1762.93 539.114 1761.82 539.215C1760.81 539.316 1760.05 539.367 1759.54 539.367V600.933ZM1716.78 726.34V504.945H1762.73C1787.09 504.945 1805.19 510.252 1817.02 520.867C1828.84 531.381 1834.76 547.505 1834.76 569.24C1834.76 589.964 1829.05 606.089 1817.62 617.614C1806.2 629.037 1790.18 634.749 1769.55 634.749C1766.92 634.749 1764.9 634.749 1763.49 634.749C1762.17 634.648 1760.91 634.547 1759.7 634.446L1759.54 726.34H1716.78ZM1858.11 726.34V504.945H1901.78V683.122H1952.13V726.34H1858.11ZM1969.72 726.34V504.945H2062.83V545.888H2012.48V590.621H2058.13V631.261H2012.48V683.122H2062.83V726.34H1969.72ZM2161.39 726.34V504.945H2205.06V683.122H2255.41V726.34H2161.39ZM2273 726.34V504.945H2366.11V545.888H2315.76V590.621H2361.41V631.261H2315.76V683.122H2366.11V726.34H2273ZM2436.47 653.097H2465.89C2462.85 637.63 2460.12 621.455 2457.7 604.572C2455.27 587.589 2453.15 569.695 2451.33 550.892C2449.11 567.471 2446.73 584.303 2444.2 601.388C2441.78 618.372 2439.2 635.608 2436.47 653.097ZM2377.48 726.34L2429.04 504.945H2475.29L2524.42 726.34H2480.29L2472.86 687.52H2428.43L2421.61 726.34H2377.48ZM2540.49 726.34V504.945H2636.03V545.888H2583.26V591.835H2631.48V632.626H2583.26V726.34H2540.49Z" fill="white"></path><rect x="1200" y="760" width="1660" height="370" fill="#0C3447"/><text x="2020" y="1100" font-family="Impact, Arial Black, sans-serif" font-size="375" fill="white" text-anchor="middle">HVAC</text><path d="M2895.6 1420.52H235.18V1253.83H2921.06L2895.6 1420.52Z" fill="#ED2025"></path><path d="M294.611 1326.74C294.849 1326.74 295.206 1326.76 295.683 1326.81C296.207 1326.86 296.588 1326.88 296.826 1326.88C301.257 1326.88 304.615 1325.62 306.902 1323.1C309.237 1320.52 310.404 1316.86 310.404 1312.09C310.404 1307.14 309.308 1303.49 307.116 1301.16C304.925 1298.78 301.495 1297.58 296.826 1297.58C296.588 1297.58 296.207 1297.61 295.683 1297.66C295.206 1297.7 294.849 1297.73 294.611 1297.73V1326.74ZM274.458 1385.84V1281.51H296.111C307.593 1281.51 316.121 1284.01 321.695 1289.01C327.269 1293.96 330.056 1301.56 330.056 1311.81C330.056 1321.57 327.364 1329.17 321.981 1334.6C316.597 1339.99 309.046 1342.68 299.327 1342.68C298.088 1342.68 297.136 1342.68 296.469 1342.68C295.849 1342.63 295.254 1342.58 294.682 1342.53L294.611 1385.84H274.458ZM380.577 1385.84V1281.51H401.158V1365.47H424.883V1385.84H380.577ZM537.218 1281.51V1347.04C537.218 1355.04 536.98 1360.73 536.504 1364.12C536.027 1367.45 535.241 1370.21 534.145 1372.4C531.621 1377.41 527.952 1381.12 523.14 1383.55C518.376 1385.94 512.23 1387.13 504.703 1387.13C497.176 1387.13 490.982 1385.94 486.123 1383.55C481.311 1381.12 477.667 1377.41 475.189 1372.4C474.046 1370.17 473.236 1367.36 472.76 1363.97C472.283 1360.59 472.045 1354.94 472.045 1347.04V1343.96V1281.51H492.84V1348.68C492.84 1357.21 493.698 1362.71 495.413 1365.19C497.176 1367.62 500.273 1368.83 504.703 1368.83C509.229 1368.83 512.326 1367.59 513.993 1365.12C515.708 1362.59 516.566 1357.11 516.566 1348.68V1281.51H537.218ZM587.382 1385.84L597.601 1281.51H624.399L629.83 1321.31C630.64 1327.36 631.307 1333.17 631.831 1338.75C632.403 1344.27 632.855 1349.66 633.189 1354.9C634.047 1345.7 634.761 1338.46 635.333 1333.17C635.952 1327.84 636.452 1323.88 636.834 1321.31L643.551 1281.51H670.063L678.853 1385.84H657.772L655.557 1337.39C655.509 1336.25 655.437 1334.53 655.342 1332.24C654.723 1319.57 654.413 1309.18 654.413 1301.09L640.835 1385.84H625.757L612.965 1300.51C612.965 1307.61 612.536 1317.76 611.679 1330.96C611.488 1333.96 611.345 1336.2 611.25 1337.67L608.034 1385.84H587.382ZM749.812 1324.81H752.027C757.363 1324.81 761.27 1323.76 763.747 1321.67C766.272 1319.57 767.535 1316.33 767.535 1311.95C767.535 1307.33 766.248 1303.92 763.676 1301.73C761.151 1299.54 757.22 1298.44 751.884 1298.44H749.812V1324.81ZM749.812 1367.26C750.146 1367.26 750.622 1367.28 751.241 1367.33C751.908 1367.38 752.408 1367.4 752.742 1367.4C758.078 1367.4 761.937 1366.33 764.319 1364.19C766.749 1362.04 767.963 1358.64 767.963 1353.97C767.963 1348.97 766.749 1345.39 764.319 1343.25C761.889 1341.1 757.887 1340.03 752.313 1340.03H749.812V1367.26ZM729.66 1385.84V1281.51H749.955C763.58 1281.51 773.204 1283.65 778.826 1287.94C784.495 1292.18 787.33 1299.3 787.33 1309.3C787.33 1314.97 786.258 1319.64 784.114 1323.31C781.97 1326.98 778.635 1329.91 774.109 1332.1C779.159 1333.91 782.875 1336.77 785.257 1340.68C787.687 1344.53 788.902 1349.63 788.902 1355.97C788.902 1360.69 788.116 1364.97 786.543 1368.83C784.971 1372.64 782.685 1375.88 779.683 1378.55C776.682 1381.17 773.061 1383.05 768.821 1384.2C764.628 1385.29 758.006 1385.84 748.954 1385.84H729.66ZM841.495 1385.84V1281.51H862.719V1385.84H841.495ZM919.743 1385.84V1281.51H940.824L961.905 1337.67C962.525 1339.48 963.382 1342.27 964.478 1346.04C965.622 1349.75 966.908 1354.13 968.337 1359.18C967.241 1351.8 966.431 1345.04 965.907 1338.89C965.383 1332.7 965.121 1326.93 965.121 1321.6V1281.51H984.416V1385.84H965.121L942.253 1327.46C941.872 1326.6 940.872 1323.05 939.252 1316.81C938.49 1313.95 937.894 1311.71 937.465 1310.09C937.942 1314.14 938.299 1318.71 938.537 1323.81C938.776 1328.86 938.895 1334.91 938.895 1341.96V1385.84H919.743ZM1069.95 1326.88H1108.76C1108.76 1327.41 1108.78 1328.22 1108.83 1329.31C1108.88 1330.36 1108.9 1331.15 1108.9 1331.67C1108.9 1349.11 1105.68 1362.71 1099.25 1372.48C1092.87 1382.24 1084.03 1387.13 1072.74 1387.13C1061.73 1387.13 1053.02 1382.36 1046.59 1372.83C1040.15 1363.26 1036.94 1350.23 1036.94 1333.74C1036.94 1317.12 1040.27 1304.04 1046.94 1294.51C1053.61 1284.94 1062.71 1280.15 1074.24 1280.15C1082.05 1280.15 1088.68 1282.43 1094.11 1287.01C1099.59 1291.58 1103.59 1298.23 1106.11 1306.95L1087.39 1315.59C1086.58 1310.4 1085.03 1306.52 1082.74 1303.94C1080.51 1301.37 1077.53 1300.09 1073.81 1300.09C1068.24 1300.09 1064.14 1302.8 1061.52 1308.23C1058.95 1313.62 1057.66 1322.12 1057.66 1333.74C1057.66 1344.84 1059.02 1353.25 1061.73 1358.97C1064.5 1364.69 1068.52 1367.55 1073.81 1367.55C1078.43 1367.55 1082.03 1365.62 1084.6 1361.76C1087.22 1357.85 1088.53 1352.37 1088.53 1345.32H1069.95V1326.88ZM1243.03 1385.84V1300.8H1227.09V1281.51H1279.9V1300.8H1263.97V1385.84H1243.03ZM1329.78 1385.84V1281.51H1350.36V1320.09H1373.66V1281.51H1394.45V1385.84H1373.66V1340.46H1350.36V1385.84H1329.78ZM1450.33 1385.84V1281.51H1494.21V1300.8H1470.49V1321.88H1492V1341.03H1470.49V1365.47H1494.21V1385.84H1450.33ZM1673.36 1384.7C1671.36 1385.51 1669.34 1386.1 1667.29 1386.48C1665.29 1386.91 1663.26 1387.13 1661.21 1387.13C1647.92 1387.13 1637.11 1382.29 1628.77 1372.62C1620.48 1362.95 1616.33 1350.28 1616.33 1334.6C1616.33 1318.31 1620.38 1305.16 1628.48 1295.15C1636.63 1285.15 1647.25 1280.15 1660.35 1280.15C1662.78 1280.15 1665.07 1280.36 1667.22 1280.79C1669.36 1281.17 1671.41 1281.79 1673.36 1282.65V1302.16C1671.36 1301.35 1669.41 1300.75 1667.5 1300.37C1665.64 1299.99 1663.81 1299.8 1662 1299.8C1655.04 1299.8 1649.4 1302.87 1645.06 1309.02C1640.73 1315.16 1638.56 1323.31 1638.56 1333.46C1638.56 1343.22 1640.77 1351.13 1645.2 1357.18C1649.68 1363.23 1655.42 1366.26 1662.43 1366.26C1664.19 1366.26 1665.98 1366.04 1667.79 1365.62C1669.64 1365.19 1671.5 1364.57 1673.36 1363.76V1384.7ZM1744.82 1351.32H1758.68C1757.25 1344.03 1755.97 1336.41 1754.82 1328.46C1753.68 1320.45 1752.68 1312.02 1751.82 1303.16C1750.78 1310.97 1749.66 1318.9 1748.46 1326.96C1747.32 1334.96 1746.11 1343.08 1744.82 1351.32ZM1717.02 1385.84L1741.32 1281.51H1763.11L1786.27 1385.84H1765.47L1761.97 1367.55H1741.03L1737.82 1385.84H1717.02ZM1833.36 1385.84V1281.51H1854.44L1875.52 1337.67C1876.14 1339.48 1877 1342.27 1878.09 1346.04C1879.24 1349.75 1880.52 1354.13 1881.95 1359.18C1880.86 1351.8 1880.05 1345.04 1879.52 1338.89C1879 1332.7 1878.74 1326.93 1878.74 1321.6V1281.51H1898.03V1385.84H1878.74L1855.87 1327.46C1855.49 1326.6 1854.49 1323.05 1852.87 1316.81C1852.11 1313.95 1851.51 1311.71 1851.08 1310.09C1851.56 1314.14 1851.91 1318.71 1852.15 1323.81C1852.39 1328.86 1852.51 1334.91 1852.51 1341.96V1385.84H1833.36ZM1973.06 1351.32H1986.93C1985.5 1344.03 1984.21 1336.41 1983.07 1328.46C1981.93 1320.45 1980.92 1312.02 1980.07 1303.16C1979.02 1310.97 1977.9 1318.9 1976.71 1326.96C1975.57 1334.96 1974.35 1343.08 1973.06 1351.32ZM1945.27 1385.84L1969.56 1281.51H1991.36L2014.51 1385.84H1993.72L1990.21 1367.55H1969.28L1966.06 1385.84H1945.27ZM2082.18 1366.55H2083.83C2091.21 1366.55 2096.86 1363.78 2100.76 1358.26C2104.67 1352.68 2106.62 1344.61 2106.62 1334.03C2106.62 1322.69 2104.72 1314.28 2100.91 1308.8C2097.14 1303.28 2091.35 1300.51 2083.54 1300.51H2082.18V1366.55ZM2061.6 1385.84V1281.51H2079.47C2095.57 1281.51 2107.58 1285.82 2115.48 1294.44C2123.44 1303.06 2127.42 1316.16 2127.42 1333.74C2127.42 1344.32 2125.97 1353.18 2123.06 1360.33C2120.15 1367.47 2115.6 1373.38 2109.41 1378.05C2105.74 1380.86 2101.57 1382.86 2096.9 1384.05C2092.28 1385.24 2085.73 1385.84 2077.25 1385.84H2061.6ZM2180.73 1385.84V1281.51H2201.95V1385.84H2180.73ZM2277.98 1351.32H2291.85C2290.42 1344.03 2289.13 1336.41 2287.99 1328.46C2286.84 1320.45 2285.84 1312.02 2284.99 1303.16C2283.94 1310.97 2282.82 1318.9 2281.63 1326.96C2280.48 1334.96 2279.27 1343.08 2277.98 1351.32ZM2250.18 1385.84L2274.48 1281.51H2296.28L2319.43 1385.84H2298.64L2295.13 1367.55H2274.2L2270.98 1385.84H2250.18ZM2366.52 1385.84V1281.51H2387.6L2408.68 1337.67C2409.3 1339.48 2410.16 1342.27 2411.26 1346.04C2412.4 1349.75 2413.69 1354.13 2415.12 1359.18C2414.02 1351.8 2413.21 1345.04 2412.69 1338.89C2412.16 1332.7 2411.9 1326.93 2411.9 1321.6V1281.51H2431.2V1385.84H2411.9L2389.03 1327.46C2388.65 1326.6 2387.65 1323.05 2386.03 1316.81C2385.27 1313.95 2384.67 1311.71 2384.24 1310.09C2384.72 1314.14 2385.08 1318.71 2385.32 1323.81C2385.55 1328.86 2385.67 1334.91 2385.67 1341.96V1385.84H2366.52ZM2550.96 1280.45H2572.26L2579.76 1328.02C2580.49 1332.3 2581.11 1337.11 2581.64 1342.46C2582.17 1347.75 2582.63 1353.64 2583.01 1360.14L2596.8 1280.45H2614.27L2627.99 1360.14C2627.99 1355.47 2628.18 1350.71 2628.56 1345.85C2628.95 1340.94 2629.55 1335.98 2630.37 1330.98L2638.16 1280.45H2658.88L2637.73 1385.84H2619.25L2608.06 1327.73C2607.48 1324.84 2606.98 1321.38 2606.55 1317.33C2606.16 1313.29 2605.87 1308.86 2605.68 1304.05C2605.2 1309.3 2604.72 1313.97 2604.24 1318.06C2603.75 1322.15 2603.3 1325.32 2602.86 1327.58L2591.17 1385.84H2572.26L2550.96 1280.45ZM2723.78 1350.97H2737.78C2736.34 1343.61 2735.04 1335.91 2733.88 1327.87C2732.73 1319.79 2731.72 1311.27 2730.85 1302.32C2729.79 1310.21 2728.66 1318.22 2727.46 1326.36C2726.3 1334.44 2725.07 1342.65 2723.78 1350.97ZM2695.69 1385.84L2720.24 1280.45H2742.26L2765.64 1385.84H2744.64L2741.1 1367.36H2719.95L2716.7 1385.84H2695.69ZM2820.65 1385.84V1336.32L2796.25 1280.45H2818.41L2825.34 1299.5C2826.64 1302.92 2827.82 1306.34 2828.88 1309.75C2829.94 1313.12 2830.95 1316.56 2831.91 1320.08C2832.78 1316.18 2833.71 1312.55 2834.72 1309.18C2835.74 1305.81 2836.77 1302.78 2837.83 1300.08L2845.48 1280.45H2866.05L2841.51 1336.32V1385.84H2820.65Z" fill="white"></path><path d="M525.92 335.24C528.68 342.44 526.26 345.24 518.86 345.83C534.3 359.1 540.12 377.62 536.32 401.37C536.32 419.96 549.86 425.13 576.97 416.89L582.4 423.48C582.46 430.97 577.12 436.46 566.36 439.96C586.52 431.85 605.99 428.71 624.75 430.54C635.57 435.27 630.6 441.55 621.83 446.94C629.5 448.56 635.07 449.76 631.81 458.78L624.27 467.22L548.31 483.58C549.71 500.13 541.65 535.04 520.95 533.14C511.95 532.32 504.85 528.28 508.28 518.78L504.01 519.35C498.83 507.5 489.54 500.43 476.51 501.13C469.21 526.61 470.53 545.29 493.32 561.32C511.92 567.61 534.71 580.12 515.16 599.68L512.95 697.52L528.1 715.54C568.73 749.85 604.24 781.66 624.31 833.36L630.7 817.22C630.36 791.05 632.88 766.31 641.01 741.22C630.52 739.94 624.59 732.65 623.21 719.37C602.68 714.02 540.36 668.84 536.7 652.49C534.88 644.35 539.63 641.91 547.68 640.94C585.16 674.61 642.12 674.19 688.29 670.54C697.98 665.77 709.63 684.13 702.41 691.72C696.83 696.94 696.25 702.4 684.78 704.06C692.65 709.28 699.72 721.87 705.94 727.02L707.28 736.28L672.46 759.15C667.1 783.57 663.5 807.95 661.64 832.27L656.53 839.98L659.71 847.76C648.77 878.35 640.28 919.48 687.89 909.38C690.61 900.74 695.46 896.43 702.41 896.46C717.72 881 732.27 864.79 746.06 847.85C754.22 841.56 763.18 843.35 758.89 854.11C766.12 856.89 761.27 865.39 755.36 868.23C765.94 876.37 760.56 889.39 739.22 907.29C732.21 915.34 732.89 923.49 741.24 931.77C745.63 926.6 746.92 928.81 744.77 935.3C753.49 932.72 763.66 935.84 775.28 944.67C795.37 945.53 809.65 949.03 801.59 972.69C802.89 987.11 866.88 985.89 880.68 981.28C895.54 990.23 903.21 979.54 903.69 949.2C904.93 944.22 909.25 944.19 914.2 945.9C951.6 1008.91 961.47 1045.46 952.74 1120.33C950.45 1139.98 935.59 1180.69 921.27 1194.75C898.82 1216.8 807.44 1216.95 776.36 1212.56C712.56 1203.55 649.37 1156.43 591.79 1130C579.3 1142.58 480.37 1177.53 477.08 1182.92C474.51 1187.12 440.88 1199.25 432.69 1200.33C414.72 1202.68 391.37 1215.28 370.74 1219.57C354.55 1222.93 321.21 1228.71 305.84 1228.06C272.72 1226.66 256.8 1187.82 241.57 1164.96C236.67 1157.6 227.5 1152.69 222.9 1144.8C217.68 1135.85 202.28 1067.57 202.96 1056.97C203.57 1047.61 210.95 1040.46 211.28 1032.58C211.87 1018.18 202.54 992.36 201.25 975.86C192.85 868.46 230.1 808.07 322.36 758.24C355.22 740.49 403.78 725.42 431.85 701.84C435.75 698.56 469.18 658.38 470.31 655.59C473.95 646.6 475.11 597.47 472.32 588.33C469.81 580.14 451.56 574.55 446.7 564.53C441.27 553.34 440.13 530.86 442.8 518.63C445.05 508.31 454.45 498.99 455.36 492.13C456.69 482.08 449.27 465.12 448.34 453.49C443.24 389.76 467.78 353.21 522.41 324.72C532.12 321.79 534.28 329.84 525.94 335.31L525.92 335.24Z" fill="#193744"></path><path d="M692.05 203.05C678.31 218.19 642.79 230.33 621.14 216.88C607.85 236.77 569.12 241.95 545.78 243.9L540.24 248.12C539.54 264.36 532.22 269.08 516.72 268.42C509.11 293.2 500.82 306.58 473.39 295.98C462.03 319.2 445.76 334.62 424.59 342.26L426.65 356.83C419.4 374.09 417.98 391.05 420.35 409.48C426.95 407.41 429.77 410.14 427.09 416.4C421.05 440.32 436.93 474.3 430.62 494.05C402.77 491.15 392.5 497.38 376.37 521.39C362.77 522.85 353.54 527.79 348.67 536.22C342.75 565.92 329.23 580.12 308.12 578.81C306.04 587.54 303.95 596.25 296.42 602.17C265.84 614.77 248.3 634.28 243.79 660.7C230.75 666.81 219.24 674.64 209.24 684.19L181.31 759.91L172.93 762.3C149.18 742.83 123.23 721.97 98.8102 702.3C90.1702 695.86 86.4802 686.57 87.7402 674.43C47.6302 651.97 93.5302 613.82 121.26 604.19L134.27 558.06C141.09 553.14 147.66 547.99 153.97 542.59C162.95 495.74 190.97 463.41 241.17 459.92L252.99 448C281.42 400.61 306.37 395.41 327.84 432.39L367.06 465.82C368.67 466.8 395.47 492.66 395.47 492.66L342.39 151.69L475.43 199.14L577.1 0L692.05 203.05Z" fill="#C72F31"></path><path d="M1133 377.59L1083.54 580.96L1147.19 636.27L1004.19 751.7C998.61 696.9 1047.96 663.33 1054.49 611.36C1063.49 539.74 954.87 476.45 894.04 510.97C870.25 524.47 809.33 610.01 797.08 636.37C787.18 657.67 787.78 675.9 781.95 695.36C777.93 708.77 764.57 722.73 762.37 737.59L716.55 709.3C713.28 704.78 737.07 680.97 740.67 675.26C753.87 654.32 761.61 625.67 765.53 601.3C769.09 579.16 767.76 529.18 775.55 512.49C779.93 503.11 833.35 488.75 848.72 465.65C870.21 433.36 843.51 405.82 843.51 405.82L915.96 331.77L955.7 411.09C955.7 411.09 1083.13 385.74 1133 377.59Z" fill="#D63132"></path><path d="M840.07 642.31C844.15 640.97 848.75 639.65 852.53 641.39C868.55 648.76 956.78 704.03 955.66 710.24C955.53 710.97 957.99 712.02 960.08 712.9C972.95 705.35 976.71 724.77 969.99 734.8L954.83 761.03C963.32 757.44 969.77 757.87 974.2 762.32C965.46 776.76 957.18 789.43 936.84 790.34C924.76 790.88 895.82 769.72 893.03 772.92C882.57 784.91 918.9 801.55 923.16 808.22C929.38 817.93 906.86 845.99 896.65 849.09C883.84 852.98 871.16 841.38 868.35 843.49C867.45 844.17 858.33 862.44 858.15 863.55C857.3 868.77 873.95 881.95 878.28 888.22C890.73 906.19 903.04 927.08 914.18 945.85C904.06 954.28 909.16 984.14 900.18 990.28C894.71 994.02 886.89 987.92 880.8 988.28C852.24 990 861.23 997.06 823.79 988.51C811.15 985.63 797.03 990.8 794.7 974.96C793.7 968.17 797.95 961.2 797.32 958.46C795.55 950.81 780.08 953.8 772.88 951.25C765.18 948.52 752.66 940.03 744.75 935.26C772.36 887.29 771.19 886.11 741.22 931.73C732.09 927.17 723.8 933.11 727.24 916.16C730.49 900.17 748.25 890.45 752.77 881.45C755.29 876.42 754.16 871.59 755.34 868.2C766.69 854.81 767.86 850.11 758.87 854.08C756.11 845.97 749.03 854.61 746.42 857.52C733.3 872.12 723.72 891.6 702.39 896.43C695.41 888.17 706.02 865.63 716.51 864.66C713.52 848.38 701.29 833.53 684.74 829.36C683.77 838.98 664.95 839.98 656.5 839.95C649.17 820.53 658.7 798.98 662.73 780.88C664.56 772.68 662.42 764.32 666.15 756.06C670.31 746.85 698.48 738.97 705.91 727C707.63 728.42 716.06 728.9 721.8 734.02C736.77 747.38 748.45 764.98 764.11 776.41C768.42 775.4 805.64 704.08 806.71 698.86C808.2 691.58 804.06 683.41 805.48 673.21C807.02 662.1 816.66 641.98 822.4 631.71C830.69 625.67 841.75 631.99 840.05 642.3L840.07 642.31Z" fill="#2C3B45"></path><path d="M172.95 762.31L201.61 683.32C210.77 665.68 236.52 659.26 238.43 656.6C240.95 653.08 239.9 642.8 242.77 636.23C253.75 611.09 283.14 610.13 296.72 591.35C300.61 585.97 299.53 575.88 303.31 573.23C308.13 569.86 318.27 573.63 324.72 569.94C336.54 563.17 337.43 527.95 353.11 520.67C359.14 517.87 366 519.54 372.64 515.5C378.91 511.68 382.75 499.19 389.95 493.98C399 487.42 424.67 480.56 430.63 494.07C420.43 526.01 412.61 536.01 429.98 570.6C434.14 578.88 453.62 599.6 453.9 601.54C454.34 604.55 451.91 639.52 450.95 643.21C444.71 667.13 404.2 694.56 383.58 706.44C328.94 737.93 266.28 757.27 220.65 804.06C213.91 804.1 180.26 768.29 172.96 762.31H172.95Z" fill="#D33132"></path><path d="M367.09 465.83C351.42 456.35 328.98 443.01 317.46 428.86C314.7 425.47 315 418.31 313.53 417.07C306.96 411.51 289.23 413.33 282.35 421.7C274.32 431.48 254.77 460.09 244.64 466.04C235.84 471.22 223.15 467.78 212.67 472.01C210.91 472.72 184.45 492.16 182.03 494.32C164.62 509.85 169.61 535.83 157 550.47C150.89 557.57 142.83 556.88 141.76 558.15C140.06 560.17 132.54 600.05 126.79 608.5C122.01 615.53 104.21 617.61 95.1202 626.24C91.7302 629.46 79.0902 648.4 78.1702 651.94C75.0002 664.23 91.7902 663.22 94.6402 672.93C97.2602 681.84 92.5702 693.52 98.8202 702.29C94.7702 699.03 84.3902 694.65 78.0102 689.55C67.7802 681.37 -0.00976562 626.37 -0.00976562 626.37L95.6502 562.09L9.39023 387.47L192.45 429.55L238.25 331.78L367.08 465.83H367.09Z" fill="#C52E30"></path><path d="M702.52 199.72L818.14 148.92L758.94 370.54C757.83 369.61 753.36 350.81 748.97 343.39C699.36 259.69 575.53 266.61 501.22 310.53C487.77 313.97 473.4 326.56 472.98 331.71C471.14 333.26 468.49 336.42 465.92 338.77C459.51 342.16 453.63 348.05 448.27 356.42C441.89 366.9 433.56 384.92 430.81 397.21C429.61 402.59 431.06 409.02 430.59 414.65C430.17 416.39 428.63 416.58 427.09 416.42C426.56 416.37 425.27 413.27 423.63 412.84L421.81 437.58C411.64 420.65 411.45 395.24 413.25 376.12C413.96 368.53 419.49 361.54 419.85 354.4C420.1 349.27 414.81 337.13 416.49 335.26C417.29 334.37 431.75 333.22 439.47 328.2C450.46 321.05 465.67 292.6 470.1 289.98C476.95 285.92 489.16 296.71 497.71 291.29C503.56 287.59 510.04 263.14 512.4 261.72C516.22 259.42 525.15 262.79 529.73 259.64C534.14 256.61 530.96 247.85 535.29 243.15C547.52 229.87 563.65 237.65 572.77 235.74C577.09 234.84 580.94 228.91 585.75 227.4C592.71 225.21 601.12 227.06 607.14 224.11C612.54 221.46 615.05 209.56 619.32 208.96C622.01 208.58 629.51 214.17 634.45 214.64C653.13 216.4 702.51 199.74 702.51 199.74L702.52 199.72Z" fill="#CF3032"></path><path d="M522.39 324.65C601.62 283.33 700.24 279.09 741.95 371.59C744.33 376.87 744.38 387.52 748.08 390.17C755.74 395.65 823.4 387.76 834.19 413.73C853.76 460.79 794.84 482.87 759.52 491.2C746.23 557.65 756.29 641.34 702.41 691.73L688.29 670.55L685.55 661.66C708.54 614.41 729.38 565.74 723.23 511.97C744.39 460.54 716.1 444.86 638.36 464.93L631.81 458.78C626.11 452.94 611 454.5 607.13 446.38C602.8 437.27 627.8 445.28 624.75 430.55C644.88 416.03 668 406.02 694.11 400.53C659.34 401.11 625.75 411.32 594.3 425.71L582.4 423.49L545.42 426.92C517.18 417.8 537.26 391 532.89 368.85C530.85 358.5 518.9 356.4 518.86 345.85C542.79 332.94 546.18 376.19 547.57 394.74C549.32 405.65 558.58 409.35 575.34 405.85L579.88 396.41C612.6 381.28 646.56 370.54 681.76 364.19C655.4 305.18 592.81 315.7 543.45 337.08L529.45 335.26C528.29 338.11 527.11 338.11 525.92 335.26L522.39 324.67V324.65Z" fill="#343E45"></path><path d="M974.2 762.31C917.92 786.78 965.07 737.48 966.42 724.58C967.16 717.48 961.36 715.85 960.08 712.89C927.4 687.08 890.57 662.86 849.61 640.23L840.07 642.29C833.99 639.01 827.93 635.91 822.42 631.7C836.68 606.15 880.12 552.62 901.86 532.89C934.75 503.04 989.36 533.7 1016.62 559.27C1047.28 588.03 1033.97 623.74 1017.88 655.96C1011.42 668.89 993.84 688.81 990.24 698.89C981.61 723 992.32 732.36 974.2 762.29V762.31Z" fill="#353F45"></path><path d="M501.22 310.53C497.14 312.94 477.43 327.96 472.98 331.71C460.23 320.95 488.88 326.4 480.04 317.6C478.17 315.74 466.44 322.35 469.44 310.55L501.22 310.53Z" fill="#C72F31"></path><path d="M465.92 338.77C460.58 343.66 456.66 353.31 448.27 356.42C452.77 349.02 454.83 340.9 464.17 335.3L465.92 338.77Z" fill="#C72F31"></path><path d="M878.86 1076.44C881.85 1062.01 869.66 1056.7 863.53 1045.92L808.33 1011.18C817.91 990.66 908.04 1000.07 914.01 1025.43C912.98 1052.61 922.85 1083.83 921.38 1110.08C913.57 1249.75 724.16 1158.18 655.26 1125.34C590.51 1094.47 541.22 1055.3 467.26 1045.09C448.76 1042.53 427.29 1044.32 407.65 1041.07C402.54 1040.23 401.95 1043.56 402.34 1035.86C402.62 1030.32 410.79 992.39 412.69 989.67C426.83 969.52 493.74 982.11 516.07 985.68C593.39 998.05 673.42 1021.16 751.03 1036.63C795.16 1045.43 843.71 1042.56 878.86 1076.43V1076.44Z" fill="#FBF7F1"></path><path d="M688.29 670.54C683.75 676.87 680.4 679.54 671.97 679.85C650.29 680.66 593.03 675.25 573.31 667.27C561.42 662.46 552.92 648.35 540.04 645.87C555.25 663.46 574.03 683.65 593.21 696.78C601.43 702.4 624.17 710.03 628.3 714.63C633.02 719.9 631.07 729.25 635.18 732.63C639.19 735.93 647.94 728.95 649.43 730.55C651.59 732.86 640.33 770.77 639.24 778.56C635.98 801.73 644.04 816.29 629.12 838.93C626.94 842.24 629.55 845.33 621.29 843.46C609.38 822.22 597.7 793.24 582.3 774.75C568.37 758.02 510.76 715.53 506.13 698.84L508.3 589.33L515.3 592.91C519.36 572.54 499.24 574.92 485.36 564.62C467.05 551.03 454.49 513.93 476.5 501.12C480.71 499.99 482.12 500.63 480.03 504.65C488.09 507.16 499.71 514.49 494.15 522.3C497.23 523.3 497.19 524.48 494.15 525.83L490.46 534.53C494.79 529.24 499.97 529.8 501.21 536.42C500.9 523.73 503.25 517.84 508.27 518.77C533.58 544.45 544.74 496.79 540.4 476.77C570.72 474.13 602.62 463.17 631.81 458.77C652.36 455.67 699.81 448.37 718.2 451.81C732.82 454.55 739.3 475.47 737.65 488.46C736.78 495.31 731.6 501 730.54 509.83C728.55 526.34 732.5 544.77 729.8 562.04C726.41 583.74 701.01 652.79 688.29 670.54Z" fill="#FCF8F1"></path><path d="M383.5 816.49C369.52 803.15 353.27 797.11 338.91 785.26C338.94 778.05 421.71 741.8 434.24 735.66C443.53 739.96 480.91 859.49 497.6 870.1C514.16 880.62 540.24 833.82 557.84 827.8C565.61 825.14 575.62 824.27 583.45 826.61C591.78 829.1 613.8 862.84 616.03 871.65C628.77 921.79 597.08 928.65 576.8 966.45C571.93 967.59 485.78 948.69 478.98 945.16C465.07 937.93 431.01 875.35 417.96 857.94C409.21 846.27 393.54 826.1 383.5 816.51V816.49Z" fill="#3E5C70"></path><path d="M381.18 1051.78L363.58 1069.37C426.92 1044.49 495.75 1072.85 549.62 1107.36C553.08 1109.58 555.92 1107 554.15 1115.22C482.05 1138.23 406.04 1185.52 329.61 1192.47C300.23 1195.14 288.37 1186.58 273.8 1160.91C240.52 1102.26 324.54 1034.74 381.18 1051.78Z" fill="#FBF7F1"></path><path d="M398.13 948.63C393.46 951.32 377.43 948.6 369.28 949.83C320.72 957.16 278.04 970.58 245.3 1009.31C240.74 1009.42 236.97 978.48 236.51 972.28C233.11 926.14 233.77 868.83 268.1 834.52C290.21 812.43 315.13 807.34 343.49 822.95C358.79 831.37 413.79 884.49 418.62 899.92C420.28 905.22 400.87 947.05 398.12 948.63H398.13Z" fill="#3D5C6F"></path><path d="M504.79 847.01C497.84 823.63 482.4 803.49 473.82 780.89C462.48 751.02 447.07 710.62 478.51 688.34L564.46 789.3C565.9 797.32 513.75 839.62 504.79 847.01Z" fill="#405D70"></path><path d="M391.78 977.64C388.26 985.1 385.52 1015.59 381.45 1018.45C376.66 1021.82 363.14 1019.03 355.55 1020.79C325.13 1027.85 284.61 1046.32 264.81 1071.23L243.58 1108.18C239.59 1075.36 228.91 1067.8 250.69 1039.46C283.7 996.499 336.95 970.05 391.78 977.63V977.64Z" fill="#3E5C70"></path><path d="M684.76 829.37C698.57 829.15 716.48 851.45 716.53 864.67C713.68 875.17 707.63 886.86 702.41 896.44C691.88 915.77 695.87 920.37 669.81 916.68C659.37 915.2 648.26 913.19 646.03 901.65C642.96 885.75 645.75 852.65 656.53 839.98C666.12 828.69 672.47 830.83 684.77 829.39L684.76 829.37Z" fill="#445F71"></path><path d="M720.06 981.14C714.72 987.41 717.15 994.55 716.51 995.26C713.09 999.04 631.27 970.2 617.71 970.51C616.45 968.88 643.49 941.77 646.01 940.61C653.56 937.12 702.52 944.23 713.88 946.74C717.82 947.61 760.23 959.26 751.82 967.01C749.57 969.08 714.92 953.67 727.13 977.62C726.53 980.01 724.18 981.19 720.07 981.15L720.06 981.14Z" fill="#FAF6F0"></path><path d="M582.4 423.48C627.19 401.9 673.61 388.32 723.57 395.28C724.4 400.36 717.44 400.06 713.75 401.25C684.01 410.82 654.25 421.25 624.76 430.54C594.97 439.92 563.65 448.95 532.99 455.21C545.51 443.14 566.63 431.08 582.41 423.48H582.4Z" fill="#F8F5EF"></path><path d="M529.45 335.24C560.75 330.03 585.55 368.3 565.5 393.73C572.3 397.03 575.57 401.06 575.33 405.83C572.56 406.89 570.75 411.81 562.82 412.82C522.42 417.97 555.05 355.31 518.85 345.83C518.85 343.31 519.12 340.91 520.59 338.76C522.01 336.45 523.4 335.83 525.91 335.24C526.67 335.06 528.74 334.99 529.44 335.24H529.45Z" fill="#354E5C"></path><path d="M755.36 868.2C756.73 864.26 756.32 860.04 758.89 854.08C766.62 836.13 801.06 781.94 813.9 766.14C817.07 762.23 820.48 758.64 824.21 755.27C826.88 754.76 826.43 758.63 826.01 760.59C824.22 769.06 776.91 848.05 768.89 858.79C765.01 863.99 762.96 868.2 755.36 868.2Z" fill="#EFEFED"></path><path d="M508.28 518.77C501.84 522.32 508.02 533.16 501.22 536.42C496.45 534.32 494.1 530.79 494.16 525.83V522.3C498.34 513.14 487.78 507.43 480.04 504.65C478.8 503.56 477.78 502.19 476.51 501.12C491.44 492.43 498.99 509.34 508.28 518.77Z" fill="#BBBBBB"></path><path d="M744.77 935.26C743.43 934.45 742.4 932.31 741.24 931.73L765.91 896.44L744.77 935.26Z" fill="#546068"></path><path d="M727.12 977.61C737.88 976.79 756.79 981.59 762.42 991.69L720.06 981.14C722.67 978.07 722.9 977.93 727.12 977.61Z" fill="#51616B"></path><path d="M853.23 915.05C856.45 917.17 896.09 978.78 893.02 981.11C865.52 979.5 835.95 965.56 810.02 980.97C788.31 969.49 823.1 913.38 831.78 910.95C834.29 910.25 850.97 913.56 853.24 915.05H853.23Z" fill="#466172"></path><path d="M688.29 801.14C670.45 795.59 676.03 755.77 695.35 751.73C714.85 754.16 764.9 807.86 732.41 825.79C719.06 809 708.7 804.99 688.29 801.14Z" fill="#476071"></path><path d="M840.07 642.31C838.06 632.83 847.72 632.26 853.09 634.33C887.02 647.46 924.52 685.3 957.79 702.07C962.27 704.53 959.18 710.78 960.09 712.89C957.11 721.32 950.6 711.68 947.57 709.52C915.57 686.71 874.64 660.93 840.08 642.3L840.07 642.31Z" fill="#F3F1EE"></path><path d="M868.29 765.86C847.25 808.25 821.59 852.7 795.67 892.63C792.89 896.92 775.35 926.93 769.49 921.12L868.29 765.86Z" fill="#EBEAE9"></path><path d="M695.35 751.72C681.05 767.05 684 782.34 688.29 801.13C679.11 799.4 670.15 804.66 670.83 789.3C671.6 772.02 674.11 749.07 695.35 751.71V751.72Z" fill="#354E5B"></path><path d="M716.53 864.67L684.76 829.37C687.41 829.06 690.64 824.75 696.31 826.35C703.44 828.36 719.59 848.17 720.15 856.32C720.53 861.91 716.91 863.3 716.54 864.67H716.53Z" fill="#384F5C"></path><path d="M917.69 751.72C915.25 754.41 870.87 712.59 868.31 705.87C876.74 707.48 886.57 716.13 893.07 721.67C897.01 725.03 921.36 747.68 917.69 751.72Z" fill="#49606E"></path><path d="M892.98 825.84C889.72 823.15 880.36 822.8 879.46 821.79C868.08 809.01 896.71 796.9 892.98 825.84Z" fill="#E8E6E4"></path><path d="M575.34 405.83C542.35 399.18 568.41 378.92 567.84 372.9C567.72 371.59 556.62 350.53 555.75 349.54C554.76 348.42 531.23 335.86 529.46 335.24C588.74 309.78 655.16 292.4 688.36 361.72C689.86 364.85 694.53 364.54 688.31 368.77C679.69 374.64 640.89 379.72 626.38 384.5C610.06 389.88 592.15 399.37 575.34 405.82V405.83Z" fill="#486272"></path><path d="M949.44 649.36L873.4 603.54C870.77 598.44 887.17 574.85 889.51 573.4C902.35 565.45 916.98 584.24 927.26 588.99C933.27 591.77 938.14 589.53 942.09 591.38C984.82 611.46 959.09 615.94 949.44 649.35V649.36Z" fill="#FBF7F0"></path><path d="M695.35 490.54C695.35 490.54 728.88 493.17 723.58 515.26L695.37 511.74C690.93 536.58 730.27 596.77 679.7 589.22C673.8 588.34 669.38 584.06 664.56 583.1C654.68 581.14 640.01 586.29 635.35 575.28C649.93 570.97 686.86 579.56 693.57 564.85C696.3 558.85 677.09 505.17 681.84 489.49C685.22 478.34 717.38 469.11 723.6 483.44C715.29 483.88 695.36 490.53 695.36 490.53L695.35 490.54Z" fill="#2D3A43"></path><path d="M645.93 490.5C627.87 488.78 639.62 493.9 638.13 498.95C635.59 507.58 621.25 504.28 614.14 504.63L617.72 497.63L592.99 501.1C601.04 487.57 637.03 476.78 645.93 490.51V490.5Z" fill="#3F464E"></path><path d="M656.49 487.01L633.37 476.66L589.48 476.47C610.61 470.05 646.29 460.07 656.48 487.01H656.49Z" fill="#4D5258"></path><path d="M686.53 610.54C688.84 611.19 695.34 619.11 690.01 621.18C677.96 620.01 667 614.02 654.72 613.79C645.18 613.61 622.04 624.18 624.75 610.55C641.23 613.51 672.27 606.52 686.52 610.55L686.53 610.54Z" fill="#30373F"></path><path d="M494.16 525.83C502.38 524.43 502.17 529.16 501.22 536.42C499.83 537.08 496.33 535.93 494.16 536.45L501.21 546.96L487.13 550.55C484.62 540.92 477.66 526.86 494.15 525.83H494.16Z" fill="#4C555D"></path><path d="M684.74 624.67C692.23 631 672.66 635.41 668.79 635.42C659.88 635.44 648.87 633.01 642.43 626.41C650.37 622.36 659.77 628.26 668.75 628.36C673.24 628.41 683.41 623.55 684.74 624.67Z" fill="#353C44"></path><path d="M480.04 504.66C488.14 501.42 505.08 517.24 501.19 522.29L494.16 522.31C491.83 513.98 486.02 509.95 480.04 504.66Z" fill="#28353F"></path><path d="M695.35 490.54C695.35 490.54 712.33 491.59 713.03 499.36C713.74 507.14 688.29 501.09 688.29 501.09C684.15 496.93 688.23 490.44 695.35 490.54Z" fill="#193744"></path><path d="M954.56 1196.74C954.56 1196.74 974.19 967.64 878.29 888.22L858.16 863.55L862.61 844.03L878.9 847.01C878.9 847.01 900.76 859.63 906.93 841.85L918.06 825.78L914.56 801.13C914.56 801.13 884.54 780.68 893.04 772.91L921.53 785.72C921.53 785.72 943.86 804.05 960.29 781L1151.92 628.12" stroke="white" stroke-width="16.95" stroke-miterlimit="10"></path><path d="M1141.4 628.12L1083.54 580.96L1133 377.59L955.7 411.09L915.96 331.77L848.09 401.14C848.09 401.14 804.5 373 761.5 363.5" stroke="white" stroke-width="16.95" stroke-miterlimit="10"></path><path d="M938.62 1193.85L940.72 1199.63H922.66V1199.39L938.62 1193.85Z" fill="white"></path><path d="M946.08 1196.06C946.08 1196.06 945.69 1198.53 945.4 1199.63H962.82L963.01 1197.52L962.82 1194.31L946.09 1196.06H946.08Z" fill="white"></path></g><defs><clipPath id="clip0_2664_177"><rect width="3062.49" height="1423.55" fill="white"></rect></clipPath></defs></svg> 